<?xml version="1.0" encoding="UTF-8" standalone="yes"?>
<!-- Created with sK1/UniConvertor (http://sk1project.org/) -->
<svg xmlns="http://www.w3.org/2000/svg" xmlns:xlink="http://www.w3.org/1999/xlink"
  width="595.276pt" height="841.89pt" viewBox="0 0 595.276 841.89"
  fill-rule="evenodd">
<g>
<path style="stroke:#000000; stroke-width:0.850394; stroke-linejoin:round; stroke-linecap:round; fill:none" d="M 594.775 421.947C 594.775 382.766 562.972 350.963 523.791 350.963C 484.61 350.963 452.807 382.766 452.807 421.947C 452.807 461.128 484.61 492.931 523.791 492.931C 562.972 492.931 594.775 461.128 594.775 421.947z"/>
<path style="stroke:#000000; stroke-width:0.850394; stroke-linejoin:round; stroke-linecap:round; fill:none" d="M 0.0455148 2.00848L 173.508 141.091"/>
<path style="stroke:#000000; stroke-width:0.850394; stroke-linejoin:round; stroke-linecap:round; fill:none" d="M 468.41 466.351L 375.219 541.072"/>
<path style="stroke:#000000; stroke-width:0.850394; stroke-linejoin:round; stroke-linecap:round; fill:none" d="M 13.2419 558.399L 154.858 520.55"/>
<path style="stroke:#000000; stroke-width:0.850394; stroke-linejoin:round; stroke-linecap:round; fill:none" d="M 455.214 403.619L 376.208 382.503"/>
<path style="stroke:#000000; stroke-width:0.850394; stroke-linejoin:round; stroke-linecap:round; fill:none" d="M 284.715 205.734L 376.208 205.734L 376.208 297.184L 284.715 297.184L 284.715 205.734z"/>
<path style="stroke:#000000; stroke-width:0.850394; stroke-linejoin:round; stroke-linecap:round; fill:none" d="M 284.715 317.513L 376.208 317.513L 376.208 408.963L 284.715 408.963L 284.715 317.513z"/>
<path style="stroke:#000000; stroke-width:0.850394; stroke-linejoin:round; stroke-linecap:round; fill:none" d="M 284.715 429.293L 376.208 429.293L 376.208 520.742L 284.715 520.742L 284.715 429.293z"/>
<path style="stroke:#000000; stroke-width:0.850394; stroke-linejoin:round; stroke-linecap:round; fill:none" d="M 284.715 541.072L 376.208 541.072L 376.208 632.522L 284.715 632.522L 284.715 541.072z"/>
<path style="stroke:#000000; stroke-width:0.850394; stroke-linejoin:round; stroke-linecap:round; fill:none" d="M 144.702 169.897L 209.397 105.202L 274.062 169.866L 209.367 234.561L 144.702 169.897z"/>
<path style="stroke:#000000; stroke-width:0.850394; stroke-linejoin:round; stroke-linecap:round; fill:none" d="M 144.702 340.145L 209.397 275.45L 274.062 340.115L 209.367 404.81L 144.702 340.145z"/>
<path style="stroke:#000000; stroke-width:0.850394; stroke-linejoin:round; stroke-linecap:round; fill:none" d="M 144.702 510.394L 209.397 445.699L 274.062 510.363L 209.367 575.058L 144.702 510.394z"/>
<path style="stroke:#000000; stroke-width:0.850394; stroke-linejoin:round; stroke-linecap:round; fill:none" d="M 144.702 680.642L 209.397 615.947L 274.062 680.612L 209.367 745.307L 144.702 680.642z"/>
<path style="stroke:#000000; stroke-width:0.850394; stroke-linejoin:round; stroke-linecap:round; fill:none" d="M 284.715 613.637L 241.632 648.182"/>
<path style="stroke:#000000; stroke-width:0.850394; stroke-linejoin:round; stroke-linecap:round; fill:none" d="M 169.82 705.76L 0.0455148 841.885"/>
<path style="stroke:#000000; stroke-width:0.850394; stroke-linejoin:round; stroke-linecap:round; fill:none" d="M 256.96 493.262L 284.715 485.844"/>
<path style="stroke:#000000; stroke-width:0.850394; stroke-linejoin:round; stroke-linecap:round; fill:none" d="M 376.208 461.391L 455.214 440.275"/>
<path style="stroke:#000000; stroke-width:0.850394; stroke-linejoin:round; stroke-linecap:round; fill:none" d="M 284.715 358.05L 262.156 352.021"/>
<path style="stroke:#000000; stroke-width:0.850394; stroke-linejoin:round; stroke-linecap:round; fill:none" d="M 368.187 297.184L 468.41 377.543"/>
<path style="stroke:#000000; stroke-width:0.850394; stroke-linejoin:round; stroke-linecap:round; fill:none" d="M 245.286 198.642L 284.715 230.257"/>
<path style="stroke:#000000; stroke-width:0.850394; stroke-linejoin:round; stroke-linecap:round; fill:none" d="M 160.102 324.745L 13.2419 285.494"/>
<path style="stroke:#000000; stroke-width:0.850394; stroke-linejoin:round; stroke-linecap:round; fill:none" d="M 594.775 421.947L 717.124 421.947"/>
</g>
</svg>